{
	"asset":{
		"version":"2.0",
		"generator":"Created using the official Cinema 4D glTF Exporter 1.000x284978"
	},
	"scenes":[{
		"nodes":[0,
		1,
		2]
	}],
	"nodes":[{
		"name":"metal.1",
		"translation":[1.97053062915802,
		1.3318383693695069,
		-0.01251466665416956],
		"rotation":[-4.329780301713277e-17,
		-0.7071067690849304,
		0.7071067690849304,
		-4.329780301713277e-17],
		"scale":[0.009999999776482582,
		0.010000000707805157,
		0.010000000707805157],
		"mesh":0
	},
	{
		"name":"metal",
		"translation":[1.97053062915802,
		1.3318383693695069,
		-0.01251466665416956],
		"rotation":[-0.7071067690849304,
		0.0,
		0.0,
		-0.7071067690849304],
		"scale":[0.009999999776482582,
		0.010000000707805157,
		0.010000000707805157],
		"mesh":1
	},
	{
		"name":"glass",
		"translation":[0.0,
		0.0,
		0.0],
		"rotation":[-0.7071067690849304,
		0.0,
		0.0,
		-0.7071067690849304],
		"scale":[0.009999999776482582,
		0.010000000707805157,
		0.010000000707805157],
		"mesh":2
	}],
	"meshes":[{
		"name":"metal.1",
		"primitives":[{
			"attributes":{
				"POSITION":1,
				"NORMAL":2,
				"TEXCOORD_0":3
			},
			"indices":0
		}]
	},
	{
		"name":"metal",
		"primitives":[{
			"attributes":{
				"POSITION":5,
				"NORMAL":6,
				"TEXCOORD_0":7
			},
			"indices":4
		}]
	},
	{
		"name":"glass",
		"primitives":[{
			"attributes":{
				"POSITION":9,
				"NORMAL":10,
				"TEXCOORD_0":11
			},
			"indices":8
		}]
	}],
	"accessors":[{
		"min":[0],
		"bufferView":0,
		"type":"SCALAR",
		"componentType":5123,
		"count":750,
		"byteOffset":0,
		"max":[499]
	},
	{
		"min":[-0.8651809692382813,
		0.0,
		-131.8118133544922],
		"bufferView":1,
		"type":"VEC3",
		"componentType":5126,
		"count":500,
		"byteOffset":0,
		"max":[0.8651809692382813,
		184.91607666015626,
		131.8118133544922]
	},
	{
		"min":[-0.9238618612289429,
		-1.0,
		-1.0],
		"bufferView":1,
		"type":"VEC3",
		"componentType":5126,
		"count":500,
		"byteOffset":12,
		"max":[0.9238619208335877,
		1.0,
		1.0]
	},
	{
		"min":[0.125,
		0.000030517578125],
		"bufferView":1,
		"type":"VEC2",
		"componentType":5126,
		"count":500,
		"byteOffset":24,
		"max":[0.875,
		1.0]
	},
	{
		"min":[0],
		"bufferView":2,
		"type":"SCALAR",
		"componentType":5123,
		"count":750,
		"byteOffset":0,
		"max":[499]
	},
	{
		"min":[-0.8651809692382813,
		0.0,
		-131.8118133544922],
		"bufferView":3,
		"type":"VEC3",
		"componentType":5126,
		"count":500,
		"byteOffset":0,
		"max":[0.8651809692382813,
		184.91607666015626,
		131.8118133544922]
	},
	{
		"min":[-0.9238618612289429,
		-1.0,
		-1.0],
		"bufferView":3,
		"type":"VEC3",
		"componentType":5126,
		"count":500,
		"byteOffset":12,
		"max":[0.9238619208335877,
		1.0,
		1.0]
	},
	{
		"min":[0.125,
		0.000030517578125],
		"bufferView":3,
		"type":"VEC2",
		"componentType":5126,
		"count":500,
		"byteOffset":24,
		"max":[0.875,
		1.0]
	},
	{
		"min":[0],
		"bufferView":4,
		"type":"SCALAR",
		"componentType":5123,
		"count":24,
		"byteOffset":0,
		"max":[15]
	},
	{
		"min":[197.91815185546876,
		-184.84136962890626,
		-264.59564208984377],
		"bufferView":5,
		"type":"VEC3",
		"componentType":5126,
		"count":16,
		"byteOffset":0,
		"max":[197.91824340820313,
		183.27114868164063,
		-1.7720037698745728]
	},
	{
		"min":[1.0,
		2.1351598888941226e-7,
		2.2293941981388344e-7],
		"bufferView":5,
		"type":"VEC3",
		"componentType":5126,
		"count":16,
		"byteOffset":12,
		"max":[1.0,
		2.1351604573283112e-7,
		2.2293943402473816e-7]
	},
	{
		"min":[0.12537765502929688,
		0.25106048583984377],
		"bufferView":5,
		"type":"VEC2",
		"componentType":5126,
		"count":16,
		"byteOffset":24,
		"max":[0.3746185302734375,
		0.498931884765625]
	}],
	"bufferViews":[{
		"buffer":0,
		"byteOffset":0,
		"byteLength":1500,
		"target":34963
	},
	{
		"buffer":0,
		"byteOffset":1500,
		"byteLength":16000,
		"target":34962,
		"byteStride":32
	},
	{
		"buffer":1,
		"byteOffset":0,
		"byteLength":1500,
		"target":34963
	},
	{
		"buffer":1,
		"byteOffset":1500,
		"byteLength":16000,
		"target":34962,
		"byteStride":32
	},
	{
		"buffer":2,
		"byteOffset":0,
		"byteLength":48,
		"target":34963
	},
	{
		"buffer":2,
		"byteOffset":48,
		"byteLength":512,
		"target":34962,
		"byteStride":32
	}],
	"buffers":[{
		"uri":"data:application/octet-stream;base64,",
		"byteLength":17500
	},
	{
		"uri":"data:application/octet-stream;base64,",
		"byteLength":17500
	},
	{
		"uri":"data:application/octet-stream;base64,",
		"byteLength":560
	}]
}