{
	"asset":{
		"version":"2.0",
		"generator":"Created using the official Cinema 4D glTF Exporter 1.000x284978"
	},
	"scenes":[{
		"nodes":[0,
		1]
	}],
	"nodes":[{
		"name":"sides_mosquito_net_frame",
		"translation":[1.9828190803527833,
		1.3372666835784913,
		-0.00029599666595458984],
		"rotation":[0.0,
		0.0,
		0.0,
		-1.0],
		"scale":[1.0,
		1.0,
		1.0],
		"mesh":0
	},
	{
		"name":"sides_mosquito_net_net",
		"translation":[1.9781794548034669,
		1.3358135223388672,
		0.8186647295951843],
		"rotation":[0.0,
		0.0,
		0.0,
		-1.0],
		"scale":[1.0,
		1.0,
		1.0],
		"children":[2,
		3]
	},
	{
		"name":"sides_mosquito_net_net-Black Mesh Fabric",
		"translation":[0.0,
		0.0,
		0.0],
		"rotation":[0.0,
		0.0,
		0.0,
		-1.0],
		"scale":[1.0,
		1.0,
		1.0],
		"mesh":1
	},
	{
		"name":"sides_mosquito_net_net-Brushed Aluminum 2",
		"translation":[0.0,
		0.0,
		0.0],
		"rotation":[0.0,
		0.0,
		0.0,
		-1.0],
		"scale":[1.0,
		1.0,
		1.0],
		"mesh":2
	}],
	"meshes":[{
		"name":"sides_mosquito_net_frame",
		"primitives":[{
			"attributes":{
				"POSITION":1,
				"NORMAL":2,
				"TEXCOORD_0":3
			},
			"indices":0,
			"material":0
		}]
	},
	{
		"name":"sides_mosquito_net_net-Black Mesh Fabric",
		"primitives":[{
			"attributes":{
				"POSITION":5,
				"NORMAL":6,
				"TEXCOORD_0":7
			},
			"indices":4,
			"material":1
		}]
	},
	{
		"name":"sides_mosquito_net_net-Brushed Aluminum 2",
		"primitives":[{
			"attributes":{
				"POSITION":9,
				"NORMAL":10,
				"TEXCOORD_0":11
			},
			"indices":8,
			"material":0
		}]
	}],
	"accessors":[{
		"min":[0],
		"bufferView":0,
		"type":"SCALAR",
		"componentType":5123,
		"count":216,
		"byteOffset":0,
		"max":[111]
	},
	{
		"min":[-0.014500021934509278,
		-1.3197169303894044,
		-1.8327879905700684],
		"bufferView":1,
		"type":"VEC3",
		"componentType":5126,
		"count":112,
		"byteOffset":0,
		"max":[0.014500021934509278,
		1.3197169303894044,
		1.8327879905700684]
	},
	{
		"min":[-1.0,
		-1.0,
		-1.0],
		"bufferView":1,
		"type":"VEC3",
		"componentType":5126,
		"count":112,
		"byteOffset":12,
		"max":[1.0,
		1.0,
		1.0]
	},
	{
		"min":[-1.0,
		-1.0],
		"bufferView":1,
		"type":"VEC2",
		"componentType":5126,
		"count":112,
		"byteOffset":24,
		"max":[2.0,
		2.0]
	},
	{
		"min":[0],
		"bufferView":2,
		"type":"SCALAR",
		"componentType":5123,
		"count":30,
		"byteOffset":0,
		"max":[19]
	},
	{
		"min":[-0.0003135204315185547,
		-1.2722299098968506,
		-0.9175127148628235],
		"bufferView":3,
		"type":"VEC3",
		"componentType":5126,
		"count":20,
		"byteOffset":0,
		"max":[0.0003135204315185547,
		1.2722299098968506,
		0.9385481476783752]
	},
	{
		"min":[-1.0,
		-1.0,
		0.0],
		"bufferView":3,
		"type":"VEC3",
		"componentType":5126,
		"count":20,
		"byteOffset":12,
		"max":[1.0,
		1.0,
		1.0]
	},
	{
		"min":[-1.051910400390625,
		-0.9704437255859375],
		"bufferView":3,
		"type":"VEC2",
		"componentType":5126,
		"count":20,
		"byteOffset":24,
		"max":[0.5858306884765625,
		2.0518798828125]
	},
	{
		"min":[0],
		"bufferView":4,
		"type":"SCALAR",
		"componentType":5123,
		"count":270,
		"byteOffset":0,
		"max":[128]
	},
	{
		"min":[-0.006427764892578125,
		-1.2722299098968506,
		-0.9385481476783752],
		"bufferView":5,
		"type":"VEC3",
		"componentType":5126,
		"count":129,
		"byteOffset":0,
		"max":[0.006427764892578125,
		1.2722299098968506,
		-0.9175127148628235]
	},
	{
		"min":[-1.0,
		-1.0,
		-1.0],
		"bufferView":5,
		"type":"VEC3",
		"componentType":5126,
		"count":129,
		"byteOffset":12,
		"max":[1.0,
		1.0,
		1.0]
	},
	{
		"min":[0.49356842041015627,
		-0.9704437255859375],
		"bufferView":5,
		"type":"VEC2",
		"componentType":5126,
		"count":129,
		"byteOffset":24,
		"max":[0.60687255859375,
		1.970428466796875]
	}],
	"bufferViews":[{
		"buffer":0,
		"byteOffset":0,
		"byteLength":432,
		"target":34963
	},
	{
		"buffer":0,
		"byteOffset":432,
		"byteLength":3584,
		"target":34962,
		"byteStride":32
	},
	{
		"buffer":1,
		"byteOffset":0,
		"byteLength":60,
		"target":34963
	},
	{
		"buffer":1,
		"byteOffset":60,
		"byteLength":640,
		"target":34962,
		"byteStride":32
	},
	{
		"buffer":2,
		"byteOffset":0,
		"byteLength":540,
		"target":34963
	},
	{
		"buffer":2,
		"byteOffset":540,
		"byteLength":4128,
		"target":34962,
		"byteStride":32
	}],
	"buffers":[{
		"uri":"data:application/octet-stream;base64,",
		"byteLength":4016
	},
	{
		"uri":"data:application/octet-stream;base64,",
		"byteLength":700
	},
	{
		"uri":"data:application/octet-stream;base64,",
		"byteLength":4668
	}],
	"materials":[{
		"pbrMetallicRoughness":{
			"baseColorFactor":[0.25420424342155459,
			0.25420424342155459,
			0.25420424342155459,
			1.0],
			"metallicFactor":0.0,
			"roughnessFactor":0.8999999761581421
		},
		"emissiveFactor":[0.0,
		0.0,
		0.0],
		"alphaMode":"OPAQUE",
		"doubleSided":true,
		"name":"Brushed Aluminum 2"
	},
	{
		"pbrMetallicRoughness":{
			"baseColorFactor":[1.0,
			1.0,
			1.0,
			1.0],
			"metallicFactor":0.0,
			"roughnessFactor":0.5590909719467163
		},
		"emissiveFactor":[0.0,
		0.0,
		0.0],
		"alphaMode":"OPAQUE",
		"doubleSided":true,
		"name":"Black Mesh Fabric"
	}]
}