{
	"asset":{
		"version":"2.0",
		"generator":"Created using the official Cinema 4D glTF Exporter 1.000x284978"
	},
	"scenes":[{
		"nodes":[0,
		3]
	}],
	"nodes":[{
		"name":"sides_automatic-sunscreen-base",
		"translation":[1.97075617313385,
		2.0930867195129396,
		-0.4311666786670685],
		"rotation":[0.7071067690849304,
		0.0,
		0.0,
		-0.7071067690849304],
		"scale":[100.0,
		100.0,
		100.0],
		"children":[1,
		2]
	},
	{
		"name":"sides_automatic-sunscreen-base-Dazzoni 005.003",
		"translation":[0.0,
		0.0,
		0.0],
		"rotation":[0.0,
		0.0,
		0.0,
		-1.0],
		"scale":[1.0,
		1.0,
		1.0],
		"mesh":0
	},
	{
		"name":"sides_automatic-sunscreen-base-Metal 004.003",
		"translation":[0.0,
		0.0,
		0.0],
		"rotation":[0.0,
		0.0,
		0.0,
		-1.0],
		"scale":[1.0,
		1.0,
		1.0],
		"mesh":1
	},
	{
		"name":"sides_automatic-sunscreen-frame",
		"translation":[1.9718846082687379,
		1.3488112688064576,
		-0.4299870729446411],
		"rotation":[0.7071067690849304,
		0.0,
		0.0,
		-0.7071067690849304],
		"scale":[100.0,
		100.0,
		100.0],
		"mesh":2
	}],
	"meshes":[{
		"name":"sides_automatic-sunscreen-base-Dazzoni 005.003",
		"primitives":[{
			"attributes":{
				"POSITION":1,
				"NORMAL":2,
				"TEXCOORD_0":3
			},
			"indices":0,
			"material":0
		}]
	},
	{
		"name":"sides_automatic-sunscreen-base-Metal 004.003",
		"primitives":[{
			"attributes":{
				"POSITION":5,
				"NORMAL":6,
				"TEXCOORD_0":7
			},
			"indices":4,
			"material":1
		}]
	},
	{
		"name":"sides_automatic-sunscreen-frame",
		"primitives":[{
			"attributes":{
				"POSITION":9,
				"NORMAL":10,
				"TEXCOORD_0":11
			},
			"indices":8,
			"material":1
		}]
	}],
	"accessors":[{
		"min":[0],
		"bufferView":0,
		"type":"SCALAR",
		"componentType":5123,
		"count":12,
		"byteOffset":0,
		"max":[7]
	},
	{
		"min":[-0.000013785957889922429,
		-0.017892656847834588,
		-0.005117857828736305],
		"bufferView":1,
		"type":"VEC3",
		"componentType":5126,
		"count":8,
		"byteOffset":0,
		"max":[0.000013784766451863107,
		0.017892654985189439,
		0.005204643588513136]
	},
	{
		"min":[-1.0,
		0.0,
		0.0],
		"bufferView":1,
		"type":"VEC3",
		"componentType":5126,
		"count":8,
		"byteOffset":12,
		"max":[1.0,
		0.0,
		0.0]
	},
	{
		"min":[0.3749999701976776,
		0.00374603271484375],
		"bufferView":1,
		"type":"VEC2",
		"componentType":5126,
		"count":8,
		"byteOffset":24,
		"max":[0.375,
		0.7462539672851563]
	},
	{
		"min":[0],
		"bufferView":2,
		"type":"SCALAR",
		"componentType":5123,
		"count":144,
		"byteOffset":0,
		"max":[71]
	},
	{
		"min":[-0.00010307133197784424,
		-0.017966577783226968,
		-0.005239700898528099],
		"bufferView":3,
		"type":"VEC3",
		"componentType":5126,
		"count":72,
		"byteOffset":0,
		"max":[0.00010307133197784424,
		0.017966577783226968,
		0.005239700898528099]
	},
	{
		"min":[-1.0,
		-1.0,
		-1.0],
		"bufferView":3,
		"type":"VEC3",
		"componentType":5126,
		"count":72,
		"byteOffset":12,
		"max":[1.0,
		1.0,
		1.0]
	},
	{
		"min":[0.12810486555099488,
		0.003104865550994873],
		"bufferView":3,
		"type":"VEC2",
		"componentType":5126,
		"count":72,
		"byteOffset":24,
		"max":[0.375,
		0.7468950748443604]
	},
	{
		"min":[0],
		"bufferView":4,
		"type":"SCALAR",
		"componentType":5123,
		"count":372,
		"byteOffset":0,
		"max":[140]
	},
	{
		"min":[-0.00010307133197784424,
		-0.0183127298951149,
		-0.013181248679757119],
		"bufferView":5,
		"type":"VEC3",
		"componentType":5126,
		"count":141,
		"byteOffset":0,
		"max":[0.00010307133197784424,
		0.0183127298951149,
		0.013181248679757119]
	},
	{
		"min":[-1.0,
		-1.0,
		-1.0],
		"bufferView":5,
		"type":"VEC3",
		"componentType":5126,
		"count":141,
		"byteOffset":12,
		"max":[1.0,
		1.0,
		1.0]
	},
	{
		"min":[0.125,
		0.0],
		"bufferView":5,
		"type":"VEC2",
		"componentType":5126,
		"count":141,
		"byteOffset":24,
		"max":[0.875,
		1.0]
	}],
	"bufferViews":[{
		"buffer":0,
		"byteOffset":0,
		"byteLength":24,
		"target":34963
	},
	{
		"buffer":0,
		"byteOffset":24,
		"byteLength":256,
		"target":34962,
		"byteStride":32
	},
	{
		"buffer":1,
		"byteOffset":0,
		"byteLength":288,
		"target":34963
	},
	{
		"buffer":1,
		"byteOffset":288,
		"byteLength":2304,
		"target":34962,
		"byteStride":32
	},
	{
		"buffer":2,
		"byteOffset":0,
		"byteLength":744,
		"target":34963
	},
	{
		"buffer":2,
		"byteOffset":744,
		"byteLength":4512,
		"target":34962,
		"byteStride":32
	}],
	"buffers":[{
		"uri":"data:application/octet-stream;base64,",
		"byteLength":280
	},
	{
		"uri":"data:application/octet-stream;base64,",
		"byteLength":2592
	},
	{
		"uri":"data:application/octet-stream;base64,",
		"byteLength":5256
	}],
	"materials":[{
		"pbrMetallicRoughness":{
			"baseColorFactor":[0.5794878005981445,
			0.8000000715255737,
			0.4807977080345154,
			1.0],
			"metallicFactor":0.0,
			"roughnessFactor":0.5356143810225276
		},
		"emissiveFactor":[0.0,
		0.0,
		0.0],
		"alphaMode":"OPAQUE",
		"doubleSided":true,
		"name":"Dazzoni 005.003"
	},
	{
		"pbrMetallicRoughness":{
			"baseColorFactor":[0.023968737572431566,
			0.023968737572431566,
			0.023968737572431566,
			1.0],
			"metallicFactor":0.0,
			"roughnessFactor":0.4830075027221463
		},
		"emissiveFactor":[0.0,
		0.0,
		0.0],
		"alphaMode":"OPAQUE",
		"doubleSided":true,
		"name":"Metal 004.003"
	}]
}