{
	"asset":{
		"version":"2.0",
		"generator":"Created using the official Cinema 4D glTF Exporter 1.000x284978"
	},
	"scenes":[{
		"nodes":[0]
	}],
	"nodes":[{
		"name":"Scene",
		"children":[1]
	},
	{
		"name":"sides_glass_window",
		"translation":[0.0,
		0.0,
		0.0],
		"rotation":[-0.7071067690849304,
		0.0,
		0.0,
		-0.7071067690849304],
		"scale":[0.009999999776482582,
		0.010000000707805157,
		0.010000000707805157],
		"children":[2]
	},
	{
		"name":"sides_glass_window-glass  \\u0441\\u0442\\u0435\\u043d\\u044b 006",
		"mesh":0
	}],
	"meshes":[{
		"name":"sides_glass_window-glass  \\u0441\\u0442\\u0435\\u043d\\u044b 006",
		"primitives":[{
			"attributes":{
				"POSITION":1,
				"NORMAL":2,
				"TEXCOORD_0":3
			},
			"indices":0,
			"material":0
		}]
	}],
	"accessors":[{
		"min":[0],
		"bufferView":0,
		"type":"SCALAR",
		"componentType":5123,
		"count":840,
		"byteOffset":0,
		"max":[559]
	},
	{
		"min":[196.3050537109375,
		-185.2348175048828,
		-264.9956359863281],
		"bufferView":1,
		"type":"VEC3",
		"componentType":5126,
		"count":560,
		"byteOffset":0,
		"max":[197.91824340820313,
		183.6645965576172,
		-1.3720036745071412]
	},
	{
		"min":[-0.382750004529953,
		-1.0,
		-1.0],
		"bufferView":1,
		"type":"VEC3",
		"componentType":5126,
		"count":560,
		"byteOffset":12,
		"max":[1.0,
		1.0,
		1.0]
	},
	{
		"min":[0.125,
		0.000030517578125],
		"bufferView":1,
		"type":"VEC2",
		"componentType":5126,
		"count":560,
		"byteOffset":24,
		"max":[0.625,
		1.0]
	}],
	"bufferViews":[{
		"buffer":0,
		"byteOffset":0,
		"byteLength":1680,
		"target":34963
	},
	{
		"buffer":0,
		"byteOffset":1680,
		"byteLength":17920,
		"target":34962,
		"byteStride":32
	}],
	"buffers":[{
		"uri":"data:application/octet-stream;base64,",
		"byteLength":19600
	}],
	"materials":[{
		"pbrMetallicRoughness":{
			"baseColorFactor":[0.0,
			0.0,
			0.0,
			1.0],
			"metallicFactor":0.0,
			"roughnessFactor":3.3306690738754698e-16
		},
		"emissiveFactor":[0.0,
		0.0,
		0.0],
		"alphaMode":"OPAQUE",
		"doubleSided":true,
		"name":"glass  \\u0441\\u0442\\u0435\\u043d\\u044b 006"
	}]
}