{
	"asset":{
		"version":"2.0",
		"generator":"Khronos glTF Blender I/O v4.0.44",
		"copyright":""
	},
	"nodes":[{
		"name":"Scene",
		"translation":[0.711261510848999,
		122.95232391357422,
		143.120849609375],
		"rotation":[0.5,
		0.5,
		-0.5,
		-0.5],
		"scale":[1.0,
		1.059999942779541,
		1.0],
		"children":[1]
	},
	{
		"name":"sides_automatic-sunscreen",
		"children":[2,
		3]
	},
	{
		"name":"sides_automatic-sunscreen-base",
		"translation":[144.7615203857422,
		209.01918029785157,
		-0.0847247913479805],
		"rotation":[0.0,
		0.0,
		0.0,
		-1.0],
		"scale":[1.0,
		1.0,
		1.0],
		"children":[4,
		5]
	},
	{
		"name":"sides_automatic-sunscreen-frame",
		"mesh":0,
		"translation":[144.76153564453126,
		134.88113403320313,
		0.14250800013542176],
		"rotation":[0.0,
		0.0,
		0.0,
		-1.0],
		"scale":[1.0,
		1.0,
		1.0]
	},
	{
		"name":"sides_automatic-sunscreen-base-Metal 004",
		"mesh":1,
		"translation":[0.0,
		0.0,
		0.0],
		"rotation":[0.0,
		0.0,
		0.0,
		-1.0],
		"scale":[1.0,
		1.0,
		1.0]
	},
	{
		"name":"sides_automatic-sunscreen-base-Dazzoni 005",
		"mesh":2
	}],
	"scenes":[{
		"nodes":[0]
	}],
	"meshes":[{
		"name":"sides_automatic-sunscreen-frame",
		"primitives":[{
			"attributes":{
				"POSITION":7,
				"NORMAL":8,
				"TEXCOORD_0":9
			},
			"indices":6,
			"material":0
		}]
	},
	{
		"name":"sides_automatic-sunscreen-base-Metal 004",
		"primitives":[{
			"attributes":{
				"POSITION":11,
				"NORMAL":12,
				"TEXCOORD_0":13
			},
			"indices":10,
			"material":0
		}]
	},
	{
		"name":"sides_automatic-sunscreen-base-Dazzoni 005",
		"primitives":[{
			"attributes":{
				"POSITION":21,
				"NORMAL":22,
				"TEXCOORD_0":23
			},
			"indices":20,
			"material":1
		}]
	}],
	"accessors":[{
		"bufferView":0,
		"type":"SCALAR",
		"componentType":5126,
		"min":[0.0],
		"count":32,
		"byteOffset":0,
		"max":[1.0329999923706055]
	},
	{
		"bufferView":0,
		"type":"VEC3",
		"componentType":5126,
		"min":[144.7615203857422,
		53.13351821899414,
		-0.0847247913479805],
		"count":32,
		"byteOffset":128,
		"max":[144.7615203857422,
		209.01918029785157,
		-0.0847247913479805]
	},
	{
		"bufferView":1,
		"type":"SCALAR",
		"componentType":5126,
		"min":[0.0],
		"count":3,
		"byteOffset":0,
		"max":[1.0329999923706055]
	},
	{
		"bufferView":1,
		"type":"VEC4",
		"componentType":5126,
		"min":[0.0,
		0.0,
		0.0,
		-1.0],
		"count":3,
		"byteOffset":12,
		"max":[0.0,
		0.0,
		0.0,
		-1.0]
	},
	{
		"bufferView":2,
		"type":"SCALAR",
		"componentType":5126,
		"min":[0.0],
		"count":3,
		"byteOffset":0,
		"max":[1.0329999923706055]
	},
	{
		"bufferView":2,
		"type":"VEC3",
		"componentType":5126,
		"min":[1.0,
		1.0,
		1.0],
		"count":3,
		"byteOffset":12,
		"max":[1.0,
		1.0,
		1.0]
	},
	{
		"bufferView":3,
		"type":"SCALAR",
		"componentType":5123,
		"min":[0],
		"count":372,
		"byteOffset":0,
		"max":[371]
	},
	{
		"bufferView":4,
		"type":"VEC3",
		"componentType":5126,
		"min":[-1.0307133197784424,
		-131.81248474121095,
		-139.98609924316407],
		"count":372,
		"byteOffset":0,
		"max":[1.0307133197784424,
		131.81248474121095,
		139.98609924316407]
	},
	{
		"bufferView":4,
		"type":"VEC3",
		"componentType":5126,
		"min":[-1.0,
		-1.0,
		-1.0],
		"count":372,
		"byteOffset":12,
		"max":[1.0,
		1.0,
		1.0]
	},
	{
		"bufferView":4,
		"type":"VEC2",
		"componentType":5126,
		"min":[0.125,
		0.000030517578125],
		"count":372,
		"byteOffset":24,
		"max":[0.875,
		1.0]
	},
	{
		"bufferView":5,
		"type":"SCALAR",
		"componentType":5123,
		"min":[0],
		"count":144,
		"byteOffset":0,
		"max":[143]
	},
	{
		"bufferView":6,
		"type":"VEC3",
		"componentType":5126,
		"min":[-1.0307073593139649,
		-49.96317672729492,
		-136.6337127685547],
		"count":144,
		"byteOffset":0,
		"max":[1.03071928024292,
		54.83083724975586,
		136.6338348388672]
	},
	{
		"bufferView":6,
		"type":"VEC3",
		"componentType":5126,
		"min":[-1.0,
		-1.0,
		-1.0],
		"count":144,
		"byteOffset":12,
		"max":[1.0,
		1.0,
		1.0]
	},
	{
		"bufferView":6,
		"type":"VEC2",
		"componentType":5126,
		"min":[0.12810134887695313,
		0.003104865550994873],
		"count":144,
		"byteOffset":24,
		"max":[0.375,
		0.74688720703125]
	},
	{
		"bufferView":7,
		"type":"SCALAR",
		"componentType":5126,
		"min":[0.0],
		"count":32,
		"byteOffset":0,
		"max":[1.0329999923706055]
	},
	{
		"bufferView":7,
		"type":"VEC3",
		"componentType":5126,
		"min":[144.7615203857422,
		53.13351821899414,
		-0.0847247913479805],
		"count":32,
		"byteOffset":128,
		"max":[144.7615203857422,
		209.01918029785157,
		-0.0847247913479805]
	},
	{
		"bufferView":8,
		"type":"SCALAR",
		"componentType":5126,
		"min":[0.0],
		"count":3,
		"byteOffset":0,
		"max":[1.0329999923706055]
	},
	{
		"bufferView":8,
		"type":"VEC4",
		"componentType":5126,
		"min":[0.0,
		0.0,
		0.0,
		-1.0],
		"count":3,
		"byteOffset":12,
		"max":[0.0,
		0.0,
		0.0,
		-1.0]
	},
	{
		"bufferView":9,
		"type":"SCALAR",
		"componentType":5126,
		"min":[0.0],
		"count":3,
		"byteOffset":0,
		"max":[1.0329999923706055]
	},
	{
		"bufferView":9,
		"type":"VEC3",
		"componentType":5126,
		"min":[1.0,
		1.0,
		1.0],
		"count":3,
		"byteOffset":12,
		"max":[1.0,
		1.0,
		1.0]
	},
	{
		"bufferView":10,
		"type":"SCALAR",
		"componentType":5123,
		"min":[0],
		"count":12,
		"byteOffset":0,
		"max":[11]
	},
	{
		"bufferView":11,
		"type":"VEC3",
		"componentType":5126,
		"min":[-0.13785362243652345,
		-48.7447509765625,
		-135.89447021484376],
		"count":12,
		"byteOffset":0,
		"max":[0.13785362243652345,
		54.48026657104492,
		135.89463806152345]
	},
	{
		"bufferView":11,
		"type":"VEC3",
		"componentType":5126,
		"min":[-1.0,
		0.0,
		0.0],
		"count":12,
		"byteOffset":12,
		"max":[1.0,
		0.0,
		0.0]
	},
	{
		"bufferView":11,
		"type":"VEC2",
		"componentType":5126,
		"min":[0.37499237060546877,
		0.00374603271484375],
		"count":12,
		"byteOffset":24,
		"max":[0.375,
		0.746246337890625]
	}],
	"bufferViews":[{
		"buffer":0,
		"byteOffset":0,
		"byteLength":512
	},
	{
		"buffer":0,
		"byteOffset":512,
		"byteLength":60
	},
	{
		"buffer":0,
		"byteOffset":572,
		"byteLength":48
	},
	{
		"buffer":1,
		"byteOffset":0,
		"byteLength":744,
		"target":34963
	},
	{
		"buffer":1,
		"byteOffset":744,
		"byteLength":11904,
		"target":34962,
		"byteStride":32
	},
	{
		"buffer":2,
		"byteOffset":0,
		"byteLength":288,
		"target":34963
	},
	{
		"buffer":2,
		"byteOffset":288,
		"byteLength":4608,
		"target":34962,
		"byteStride":32
	},
	{
		"buffer":3,
		"byteOffset":0,
		"byteLength":512
	},
	{
		"buffer":3,
		"byteOffset":512,
		"byteLength":60
	},
	{
		"buffer":3,
		"byteOffset":572,
		"byteLength":48
	},
	{
		"buffer":4,
		"byteOffset":0,
		"byteLength":24,
		"target":34963
	},
	{
		"buffer":4,
		"byteOffset":24,
		"byteLength":384,
		"target":34962,
		"byteStride":32
	}],
	"buffers":[{
		"uri":"data:application/octet-stream;base64,",
		"byteLength":620
	},
	{
		"uri":"data:application/octet-stream;base64,",
		"byteLength":12648
	},
	{
		"uri":"data:application/octet-stream;base64,",
		"byteLength":4896
	},
	{
		"uri":"data:application/octet-stream;base64,",
		"byteLength":620
	},
	{
		"uri":"data:application/octet-stream;base64,",
		"byteLength":408
	}],
	"materials":[{
		"pbrMetallicRoughness":{
			"baseColorFactor":[0.023968737572431566,
			0.023968737572431566,
			0.023968737572431566,
			1.0],
			"metallicFactor":0.0,
			"roughnessFactor":0.4000000059604645
		},
		"emissiveFactor":[0.0,
		0.0,
		0.0],
		"alphaMode":"OPAQUE",
		"doubleSided":false,
		"name":"Metal 004"
	},
	{
		"pbrMetallicRoughness":{
			"baseColorFactor":[0.5794878005981445,
			0.8000000715255737,
			0.4807977080345154,
			1.0],
			"metallicFactor":0.0,
			"roughnessFactor":0.5
		},
		"emissiveFactor":[0.0,
		0.0,
		0.0],
		"alphaMode":"OPAQUE",
		"doubleSided":false,
		"name":"Dazzoni 005"
	}],
	"animations":[{
		"samplers":[{
			"input":0,
			"interpolation":"LINEAR",
			"output":1
		},
		{
			"input":2,
			"interpolation":"STEP",
			"output":3
		},
		{
			"input":4,
			"interpolation":"STEP",
			"output":5
		},
		{
			"input":14,
			"interpolation":"LINEAR",
			"output":15
		},
		{
			"input":16,
			"interpolation":"STEP",
			"output":17
		},
		{
			"input":18,
			"interpolation":"STEP",
			"output":19
		}],
		"channels":[{
			"sampler":0,
			"target":{
				"node":2,
				"path":"translation"
			}
		},
		{
			"sampler":1,
			"target":{
				"node":2,
				"path":"rotation"
			}
		},
		{
			"sampler":2,
			"target":{
				"node":2,
				"path":"scale"
			}
		},
		{
			"sampler":3,
			"target":{
				"node":4,
				"path":"translation"
			}
		},
		{
			"sampler":4,
			"target":{
				"node":4,
				"path":"rotation"
			}
		},
		{
			"sampler":5,
			"target":{
				"node":4,
				"path":"scale"
			}
		}]
	}]
}