{
	"asset":{
		"version":"2.0",
		"generator":"Created using the official Cinema 4D glTF Exporter 1.000x284978"
	},
	"scenes":[{
		"nodes":[0]
	}],
	"nodes":[{
		"name":"Scene",
		"children":[1,
		2]
	},
	{
		"name":"sides_glass_window",
		"mesh":0
	},
	{
		"name":"sides_metal_window",
		"mesh":1
	}],
	"meshes":[{
		"name":"sides_glass_window",
		"primitives":[{
			"material":0,
			"attributes":{
				"POSITION":1,
				"NORMAL":2,
				"TEXCOORD_0":3
			},
			"indices":0
		}]
	},
	{
		"name":"sides_metal_window",
		"primitives":[{
			"material":1,
			"attributes":{
				"POSITION":5,
				"NORMAL":6,
				"TEXCOORD_0":7
			},
			"indices":4
		}]
	}],
	"accessors":[{
		"bufferView":0,
		"type":"SCALAR",
		"componentType":5123,
		"count":18,
		"byteOffset":0,
		"min":[0],
		"max":[11]
	},
	{
		"bufferView":1,
		"type":"VEC3",
		"componentType":5126,
		"count":12,
		"byteOffset":0,
		"min":[1.5508230924606324,
		0.030901484191417695,
		-1.4016236066818238],
		"max":[1.5508240461349488,
		2.659137725830078,
		1.4042601585388184]
	},
	{
		"bufferView":1,
		"type":"VEC3",
		"componentType":5126,
		"count":12,
		"byteOffset":12,
		"min":[-1.0,
		0.0,
		0.0],
		"max":[-1.0,
		0.0,
		0.0]
	},
	{
		"bufferView":1,
		"type":"VEC2",
		"componentType":5126,
		"count":12,
		"byteOffset":24,
		"min":[0.12537765502929688,
		0.25106048583984377],
		"max":[0.3746185302734375,
		0.498931884765625]
	},
	{
		"bufferView":2,
		"type":"SCALAR",
		"componentType":5123,
		"count":792,
		"byteOffset":0,
		"min":[0],
		"max":[527]
	},
	{
		"bufferView":3,
		"type":"VEC3",
		"componentType":5126,
		"count":528,
		"byteOffset":0,
		"min":[1.5346921682357789,
		0.0269014835357666,
		-1.4056235551834107],
		"max":[1.5508240461349488,
		2.663137674331665,
		1.4082601070404053]
	},
	{
		"bufferView":3,
		"type":"VEC3",
		"componentType":5126,
		"count":528,
		"byteOffset":12,
		"min":[-0.9239062666893005,
		-1.0,
		-1.0],
		"max":[0.382750004529953,
		1.0,
		1.0]
	},
	{
		"bufferView":3,
		"type":"VEC2",
		"componentType":5126,
		"count":528,
		"byteOffset":24,
		"min":[0.125,
		0.000030517578125],
		"max":[0.625,
		1.0]
	}],
	"bufferViews":[{
		"buffer":0,
		"byteOffset":0,
		"byteLength":36,
		"target":34963
	},
	{
		"buffer":0,
		"byteOffset":36,
		"byteLength":384,
		"target":34962,
		"byteStride":32
	},
	{
		"buffer":1,
		"byteOffset":0,
		"byteLength":1584,
		"target":34963
	},
	{
		"buffer":1,
		"byteOffset":1584,
		"byteLength":16896,
		"target":34962,
		"byteStride":32
	}],
	"buffers":[{
		"uri":"data:application/octet-stream;base64,",
		"byteLength":420
	},
	{
		"uri":"data:application/octet-stream;base64,",
		"byteLength":18480
	}],
	"materials":[{
		"pbrMetallicRoughness":{
			"baseColorFactor":[0.9999999999999999,
			0.9999999999999999,
			0.9999999999999999,
			1.0],
			"metallicFactor":1.0,
			"roughnessFactor":3.3306690738754698e-16
		},
		"emissiveFactor":[0.0,
		0.0,
		0.0],
		"alphaMode":"OPAQUE",
		"doubleSided":true,
		"name":"glass "
	},
	{
		"pbrMetallicRoughness":{
			"baseColorFactor":[0.9999999999999999,
			0.9999999999999999,
			0.9999999999999999,
			1.0],
			"metallicFactor":1.0,
			"roughnessFactor":0.5590909719467163
		},
		"emissiveFactor":[0.0,
		0.0,
		0.0],
		"alphaMode":"OPAQUE",
		"doubleSided":true,
		"name":"metal"
	}]
}