{
	"asset":{
		"version":"2.0",
		"generator":"Created using the official Cinema 4D glTF Exporter 1.000x284978"
	},
	"scenes":[{
		"nodes":[0,
		1]
	}],
	"nodes":[{
		"name":"sides_mosquito_net_frame",
		"translation":[0.0,
		0.0,
		0.0],
		"rotation":[0.0,
		0.0,
		0.0,
		-1.0],
		"scale":[1.0,
		1.0,
		1.0],
		"mesh":0
	},
	{
		"name":"sides_mosquito_net_net ",
		"translation":[1.5517737865447999,
		1.3489949703216553,
		1.328826904296875],
		"rotation":[0.0,
		0.0,
		0.0,
		-1.0],
		"scale":[1.0,
		1.0,
		1.0],
		"children":[2,
		3]
	},
	{
		"name":"sides_mosquito_net_net -Brushed Aluminum 2",
		"translation":[0.0,
		0.0,
		0.0],
		"rotation":[0.0,
		0.0,
		0.0,
		-1.0],
		"scale":[1.0,
		1.0,
		1.0],
		"mesh":1
	},
	{
		"name":"sides_mosquito_net_net -Black Mesh Fabric",
		"translation":[0.0,
		0.0,
		0.0],
		"rotation":[0.0,
		0.0,
		0.0,
		-1.0],
		"scale":[1.0,
		1.0,
		1.0],
		"mesh":2
	}],
	"meshes":[{
		"name":"sides_mosquito_net_frame",
		"primitives":[{
			"attributes":{
				"POSITION":1,
				"NORMAL":2,
				"TEXCOORD_0":3
			},
			"indices":0,
			"material":0
		}]
	},
	{
		"name":"sides_mosquito_net_net -Brushed Aluminum 2",
		"primitives":[{
			"attributes":{
				"POSITION":7,
				"NORMAL":8,
				"TEXCOORD_0":9
			},
			"indices":6,
			"material":0
		}]
	},
	{
		"name":"sides_mosquito_net_net -Black Mesh Fabric",
		"primitives":[{
			"attributes":{
				"POSITION":13,
				"NORMAL":14,
				"TEXCOORD_0":15
			},
			"indices":12,
			"material":1
		}]
	}],
	"accessors":[{
		"min":[0],
		"bufferView":0,
		"type":"SCALAR",
		"componentType":5123,
		"count":216,
		"byteOffset":0,
		"max":[111]
	},
	{
		"min":[1.5372737646102906,
		0.03073132038116455,
		-1.3993773460388184],
		"bufferView":1,
		"type":"VEC3",
		"componentType":5126,
		"count":112,
		"byteOffset":0,
		"max":[1.566273808479309,
		2.6701650619506838,
		1.4041059017181397]
	},
	{
		"min":[-1.0,
		-1.0,
		-1.0],
		"bufferView":1,
		"type":"VEC3",
		"componentType":5126,
		"count":112,
		"byteOffset":12,
		"max":[1.0,
		1.0,
		1.0]
	},
	{
		"min":[-1.0,
		-1.0],
		"bufferView":1,
		"type":"VEC2",
		"componentType":5126,
		"count":112,
		"byteOffset":24,
		"max":[2.0,
		2.0]
	},
	{
		"min":[0.0],
		"bufferView":2,
		"type":"SCALAR",
		"componentType":5126,
		"count":27,
		"byteOffset":0,
		"max":[0.8666666746139526]
	},
	{
		"min":[1.0,
		1.0,
		1.0],
		"bufferView":2,
		"type":"VEC3",
		"componentType":5126,
		"count":27,
		"byteOffset":108,
		"max":[1.0,
		1.0,
		1.690000057220459]
	},
	{
		"min":[0],
		"bufferView":3,
		"type":"SCALAR",
		"componentType":5123,
		"count":270,
		"byteOffset":0,
		"max":[125]
	},
	{
		"min":[-0.006427764892578125,
		-1.2722299098968506,
		-1.586090326309204],
		"bufferView":4,
		"type":"VEC3",
		"componentType":5126,
		"count":126,
		"byteOffset":0,
		"max":[0.006427764892578125,
		1.2722299098968506,
		-1.5650548934936524]
	},
	{
		"min":[-1.0,
		-1.0,
		-1.0],
		"bufferView":4,
		"type":"VEC3",
		"componentType":5126,
		"count":126,
		"byteOffset":12,
		"max":[1.0,
		1.0,
		1.0]
	},
	{
		"min":[0.49356842041015627,
		-0.9704437255859375],
		"bufferView":4,
		"type":"VEC2",
		"componentType":5126,
		"count":126,
		"byteOffset":24,
		"max":[0.60687255859375,
		1.970428466796875]
	},
	{
		"min":[0.0],
		"bufferView":5,
		"type":"SCALAR",
		"componentType":5126,
		"count":27,
		"byteOffset":0,
		"max":[0.8666666746139526]
	},
	{
		"min":[1.0,
		1.0,
		1.0],
		"bufferView":5,
		"type":"VEC3",
		"componentType":5126,
		"count":27,
		"byteOffset":108,
		"max":[1.0,
		1.0,
		1.690000057220459]
	},
	{
		"min":[0],
		"bufferView":6,
		"type":"SCALAR",
		"componentType":5123,
		"count":30,
		"byteOffset":0,
		"max":[19]
	},
	{
		"min":[-0.0003135204315185547,
		-1.2722299098968506,
		-1.5650548934936524],
		"bufferView":7,
		"type":"VEC3",
		"componentType":5126,
		"count":20,
		"byteOffset":0,
		"max":[0.0003135204315185547,
		1.2722299098968506,
		0.0]
	},
	{
		"min":[-1.0,
		-1.0,
		0.0],
		"bufferView":7,
		"type":"VEC3",
		"componentType":5126,
		"count":20,
		"byteOffset":12,
		"max":[1.0,
		1.0,
		1.0]
	},
	{
		"min":[-1.051910400390625,
		-0.9704437255859375],
		"bufferView":7,
		"type":"VEC2",
		"componentType":5126,
		"count":20,
		"byteOffset":24,
		"max":[0.5858306884765625,
		2.0518798828125]
	}],
	"bufferViews":[{
		"buffer":0,
		"byteOffset":0,
		"byteLength":432,
		"target":34963
	},
	{
		"buffer":0,
		"byteOffset":432,
		"byteLength":3584,
		"target":34962,
		"byteStride":32
	},
	{
		"buffer":1,
		"byteOffset":0,
		"byteLength":432
	},
	{
		"buffer":2,
		"byteOffset":0,
		"byteLength":540,
		"target":34963
	},
	{
		"buffer":2,
		"byteOffset":540,
		"byteLength":4032,
		"target":34962,
		"byteStride":32
	},
	{
		"buffer":3,
		"byteOffset":0,
		"byteLength":432
	},
	{
		"buffer":4,
		"byteOffset":0,
		"byteLength":60,
		"target":34963
	},
	{
		"buffer":4,
		"byteOffset":60,
		"byteLength":640,
		"target":34962,
		"byteStride":32
	}],
	"buffers":[{
		"uri":"data:application/octet-stream;base64,",
		"byteLength":4016
	},
	{
		"uri":"data:application/octet-stream;base64,",
		"byteLength":432
	},
	{
		"uri":"data:application/octet-stream;base64,",
		"byteLength":4572
	},
	{
		"uri":"data:application/octet-stream;base64,",
		"byteLength":432
	},
	{
		"uri":"data:application/octet-stream;base64,",
		"byteLength":700
	}],
	"materials":[{
		"pbrMetallicRoughness":{
			"baseColorFactor":[0.9999999999999999,
			0.9999999999999999,
			0.9999999999999999,
			1.0],
			"metallicFactor":1.0,
			"roughnessFactor":0.8999999761581421
		},
		"emissiveFactor":[0.0,
		0.0,
		0.0],
		"alphaMode":"OPAQUE",
		"doubleSided":true,
		"name":"Brushed Aluminum 2"
	},
	{
		"pbrMetallicRoughness":{
			"baseColorFactor":[0.9999999999999999,
			0.9999999999999999,
			0.9999999999999999,
			1.0],
			"metallicFactor":1.0,
			"roughnessFactor":0.5590909719467163
		},
		"emissiveFactor":[0.0,
		0.0,
		0.0],
		"alphaMode":"OPAQUE",
		"doubleSided":true,
		"name":"Black Mesh Fabric"
	}],
	"animations":[{
		"samplers":[{
			"input":4,
			"interpolation":"LINEAR",
			"output":5
		},
		{
			"input":10,
			"interpolation":"LINEAR",
			"output":11
		}],
		"channels":[{
			"sampler":0,
			"target":{
				"node":1,
				"path":"scale"
			}
		},
		{
			"sampler":1,
			"target":{
				"node":2,
				"path":"scale"
			}
		}]
	}]
}