{
	"asset":{
		"version":"2.0",
		"generator":"Created using the official Cinema 4D glTF Exporter 1.000x284978"
	},
	"scenes":[{
		"nodes":[0]
	}],
	"nodes":[{
		"name":"sides_automatic_sunscreen",
		"children":[1,
		2]
	},
	{
		"name":"sides_automatic_sunscreen_base",
		"translation":[1.447615385055542,
		2.638500213623047,
		-0.0008465922437608242],
		"rotation":[0.0,
		0.0,
		0.0,
		-1.0],
		"scale":[1.0,
		2.4817404747009279,
		1.0],
		"mesh":0
	},
	{
		"name":"sides_automatic_sunscreen_frame",
		"translation":[1.4473958015441895,
		1.710469126701355,
		0.06760799139738083],
		"rotation":[0.0,
		0.0,
		0.0,
		-1.0],
		"scale":[1.0,
		1.0,
		1.0],
		"mesh":1
	}],
	"meshes":[{
		"name":"sides_automatic_sunscreen_base",
		"primitives":[{
			"attributes":{
				"POSITION":1,
				"NORMAL":2,
				"TEXCOORD_0":3
			},
			"indices":0
		}]
	},
	{
		"name":"sides_automatic_sunscreen_frame",
		"primitives":[{
			"attributes":{
				"POSITION":7,
				"NORMAL":8,
				"TEXCOORD_0":9
			},
			"indices":6
		}]
	}],
	"accessors":[{
		"min":[0],
		"bufferView":0,
		"type":"SCALAR",
		"componentType":5123,
		"count":156,
		"byteOffset":0,
		"max":[79]
	},
	{
		"min":[-0.010307133197784424,
		-1.0479401350021363,
		-1.366337776184082],
		"bufferView":1,
		"type":"VEC3",
		"componentType":5126,
		"count":80,
		"byteOffset":0,
		"max":[0.010307133197784424,
		0.0,
		1.366337776184082]
	},
	{
		"min":[-1.0,
		-1.0,
		-1.0],
		"bufferView":1,
		"type":"VEC3",
		"componentType":5126,
		"count":80,
		"byteOffset":12,
		"max":[1.0,
		1.0,
		1.0]
	},
	{
		"min":[0.12810134887695313,
		0.003104865550994873],
		"bufferView":1,
		"type":"VEC2",
		"componentType":5126,
		"count":80,
		"byteOffset":24,
		"max":[0.375,
		0.74688720703125]
	},
	{
		"min":[0.0],
		"bufferView":2,
		"type":"SCALAR",
		"componentType":5126,
		"count":3,
		"byteOffset":0,
		"max":[0.8666666746139526]
	},
	{
		"min":[1.0,
		1.0,
		1.0],
		"bufferView":2,
		"type":"VEC3",
		"componentType":5126,
		"count":3,
		"byteOffset":12,
		"max":[1.0,
		2.484999895095825,
		1.0]
	},
	{
		"min":[0],
		"bufferView":3,
		"type":"SCALAR",
		"componentType":5123,
		"count":372,
		"byteOffset":0,
		"max":[138]
	},
	{
		"min":[-0.01008760929107666,
		-1.679782748222351,
		-1.4660438299179078],
		"bufferView":4,
		"type":"VEC3",
		"componentType":5126,
		"count":139,
		"byteOffset":0,
		"max":[0.010526657104492188,
		0.9564670324325562,
		1.3336780071258546]
	},
	{
		"min":[-1.0,
		-1.0,
		-1.0],
		"bufferView":4,
		"type":"VEC3",
		"componentType":5126,
		"count":139,
		"byteOffset":12,
		"max":[1.0,
		1.0,
		1.0]
	},
	{
		"min":[0.125,
		0.000030517578125],
		"bufferView":4,
		"type":"VEC2",
		"componentType":5126,
		"count":139,
		"byteOffset":24,
		"max":[0.875,
		1.0]
	}],
	"bufferViews":[{
		"buffer":0,
		"byteOffset":0,
		"byteLength":312,
		"target":34963
	},
	{
		"buffer":0,
		"byteOffset":312,
		"byteLength":2560,
		"target":34962,
		"byteStride":32
	},
	{
		"buffer":1,
		"byteOffset":0,
		"byteLength":48
	},
	{
		"buffer":2,
		"byteOffset":0,
		"byteLength":744,
		"target":34963
	},
	{
		"buffer":2,
		"byteOffset":744,
		"byteLength":4448,
		"target":34962,
		"byteStride":32
	}],
	"buffers":[{
		"uri":"data:application/octet-stream;base64,",
		"byteLength":2872
	},
	{
		"uri":"data:application/octet-stream;base64,",
		"byteLength":48
	},
	{
		"uri":"data:application/octet-stream;base64,",
		"byteLength":5192
	}],
	"animations":[{
		"samplers":[{
			"input":4,
			"interpolation":"LINEAR",
			"output":5
		}],
		"channels":[{
			"sampler":0,
			"target":{
				"node":1,
				"path":"scale"
			}
		}]
	}]
}